<mxfile host="app.diagrams.net" modified="2021-02-05T03:40:36.082Z" agent="5.0 (Windows)" etag="KTqcda6f394NXhfFun4R" version="14.2.9" type="github">
  <diagram id="tHx_S5eQYKsDHUNSWSZ4" name="Page-1">
    <mxGraphModel dx="1422" dy="763" grid="1" gridSize="10" guides="1" tooltips="1" connect="1" arrows="1" fold="1" page="1" pageScale="1" pageWidth="850" pageHeight="1100" math="0" shadow="0">
      <root>
        <mxCell id="0" />
        <mxCell id="1" parent="0" />
        <mxCell id="Je2sraTjGHdL6ze52qPn-2" value="Raspberry Pi" style="strokeColor=#dddddd;shadow=1;strokeWidth=1;rounded=1;absoluteArcSize=1;arcSize=2;labelPosition=center;verticalLabelPosition=middle;align=center;verticalAlign=bottom;spacingLeft=0;fontColor=#999999;fontSize=12;whiteSpace=wrap;spacingBottom=2;" vertex="1" parent="1">
          <mxGeometry x="160" y="380" width="90" height="80" as="geometry" />
        </mxCell>
        <mxCell id="Je2sraTjGHdL6ze52qPn-3" value="" style="dashed=0;connectable=0;html=1;fillColor=#757575;strokeColor=none;shape=mxgraph.gcp2.circuit_board;part=1;" vertex="1" parent="Je2sraTjGHdL6ze52qPn-2">
          <mxGeometry x="0.5" width="50" height="45" relative="1" as="geometry">
            <mxPoint x="-25" y="12.5" as="offset" />
          </mxGeometry>
        </mxCell>
        <mxCell id="Je2sraTjGHdL6ze52qPn-4" value="&lt;div align=&quot;center&quot;&gt;&lt;h2&gt;AWS&lt;/h2&gt;&lt;/div&gt;" style="rounded=0;whiteSpace=wrap;html=1;fontStyle=0;align=center;labelPosition=center;verticalLabelPosition=top;verticalAlign=bottom;gradientColor=#ffffff;fillColor=none;strokeColor=#FFB366;strokeWidth=5;" vertex="1" parent="1">
          <mxGeometry x="425" y="120" width="590" height="460" as="geometry" />
        </mxCell>
        <mxCell id="Je2sraTjGHdL6ze52qPn-9" value="HTTP API&lt;br&gt;&lt;div&gt;Gateway&lt;/div&gt;" style="points=[[0,0,0],[0.25,0,0],[0.5,0,0],[0.75,0,0],[1,0,0],[0,1,0],[0.25,1,0],[0.5,1,0],[0.75,1,0],[1,1,0],[0,0.25,0],[0,0.5,0],[0,0.75,0],[1,0.25,0],[1,0.5,0],[1,0.75,0]];outlineConnect=0;fontColor=#232F3E;gradientColor=#F54749;gradientDirection=north;fillColor=#C7131F;strokeColor=#ffffff;dashed=0;verticalLabelPosition=bottom;verticalAlign=top;align=center;html=1;fontSize=12;fontStyle=0;aspect=fixed;shape=mxgraph.aws4.resourceIcon;resIcon=mxgraph.aws4.api_gateway;" vertex="1" parent="1">
          <mxGeometry x="470" y="150" width="78" height="78" as="geometry" />
        </mxCell>
        <mxCell id="Je2sraTjGHdL6ze52qPn-10" value="Web Socket&lt;br&gt;API Gateway" style="points=[[0,0,0],[0.25,0,0],[0.5,0,0],[0.75,0,0],[1,0,0],[0,1,0],[0.25,1,0],[0.5,1,0],[0.75,1,0],[1,1,0],[0,0.25,0],[0,0.5,0],[0,0.75,0],[1,0.25,0],[1,0.5,0],[1,0.75,0]];outlineConnect=0;fontColor=#232F3E;gradientColor=#945DF2;gradientDirection=north;fillColor=#5A30B5;strokeColor=#ffffff;dashed=0;verticalLabelPosition=bottom;verticalAlign=top;align=center;html=1;fontSize=12;fontStyle=0;aspect=fixed;shape=mxgraph.aws4.resourceIcon;resIcon=mxgraph.aws4.api_gateway;" vertex="1" parent="1">
          <mxGeometry x="470" y="450" width="78" height="78" as="geometry" />
        </mxCell>
        <mxCell id="Je2sraTjGHdL6ze52qPn-11" value="User Input&lt;br&gt;Handler" style="points=[[0,0,0],[0.25,0,0],[0.5,0,0],[0.75,0,0],[1,0,0],[0,1,0],[0.25,1,0],[0.5,1,0],[0.75,1,0],[1,1,0],[0,0.25,0],[0,0.5,0],[0,0.75,0],[1,0.25,0],[1,0.5,0],[1,0.75,0]];outlineConnect=0;fontColor=#232F3E;gradientColor=#F78E04;gradientDirection=north;fillColor=#D05C17;strokeColor=#ffffff;dashed=0;verticalLabelPosition=bottom;verticalAlign=top;align=center;html=1;fontSize=12;fontStyle=0;aspect=fixed;shape=mxgraph.aws4.resourceIcon;resIcon=mxgraph.aws4.lambda;" vertex="1" parent="1">
          <mxGeometry x="728" y="150" width="78" height="78" as="geometry" />
        </mxCell>
        <mxCell id="Je2sraTjGHdL6ze52qPn-12" value="Pi Message&lt;br&gt;Receiver" style="points=[[0,0,0],[0.25,0,0],[0.5,0,0],[0.75,0,0],[1,0,0],[0,1,0],[0.25,1,0],[0.5,1,0],[0.75,1,0],[1,1,0],[0,0.25,0],[0,0.5,0],[0,0.75,0],[1,0.25,0],[1,0.5,0],[1,0.75,0]];outlineConnect=0;fontColor=#232F3E;gradientColor=#F78E04;gradientDirection=north;fillColor=#D05C17;strokeColor=#ffffff;dashed=0;verticalLabelPosition=bottom;verticalAlign=top;align=center;html=1;fontSize=12;fontStyle=0;aspect=fixed;shape=mxgraph.aws4.resourceIcon;resIcon=mxgraph.aws4.lambda;" vertex="1" parent="1">
          <mxGeometry x="728" y="450" width="78" height="78" as="geometry" />
        </mxCell>
        <mxCell id="Je2sraTjGHdL6ze52qPn-13" value="&lt;div&gt;Pi State&lt;/div&gt;&lt;div&gt;Storage&lt;/div&gt;" style="outlineConnect=0;dashed=0;verticalLabelPosition=bottom;verticalAlign=top;align=center;html=1;shape=mxgraph.aws3.dynamo_db;fillColor=#2E73B8;gradientColor=none;strokeColor=#FFB366;strokeWidth=5;" vertex="1" parent="1">
          <mxGeometry x="900" y="280" width="72" height="81" as="geometry" />
        </mxCell>
        <mxCell id="Je2sraTjGHdL6ze52qPn-14" value="&lt;div&gt;Process&lt;/div&gt;&lt;div&gt;State Change&lt;br&gt;&lt;/div&gt;" style="endArrow=classic;html=1;" edge="1" parent="1" source="Je2sraTjGHdL6ze52qPn-10" target="Je2sraTjGHdL6ze52qPn-12">
          <mxGeometry width="50" height="50" relative="1" as="geometry">
            <mxPoint x="400" y="410" as="sourcePoint" />
            <mxPoint x="450" y="360" as="targetPoint" />
          </mxGeometry>
        </mxCell>
        <mxCell id="Je2sraTjGHdL6ze52qPn-15" value="&lt;div&gt;Process&lt;/div&gt;&lt;div&gt;Request&lt;/div&gt;" style="endArrow=classic;html=1;" edge="1" parent="1" source="Je2sraTjGHdL6ze52qPn-9" target="Je2sraTjGHdL6ze52qPn-11">
          <mxGeometry width="50" height="50" relative="1" as="geometry">
            <mxPoint x="400" y="410" as="sourcePoint" />
            <mxPoint x="450" y="360" as="targetPoint" />
          </mxGeometry>
        </mxCell>
        <mxCell id="Je2sraTjGHdL6ze52qPn-16" value="&lt;div&gt;Store Request&lt;/div&gt;&lt;div&gt;Result&lt;br&gt;&lt;/div&gt;" style="endArrow=classic;html=1;" edge="1" parent="1" source="Je2sraTjGHdL6ze52qPn-11" target="Je2sraTjGHdL6ze52qPn-13">
          <mxGeometry width="50" height="50" relative="1" as="geometry">
            <mxPoint x="400" y="410" as="sourcePoint" />
            <mxPoint x="450" y="360" as="targetPoint" />
          </mxGeometry>
        </mxCell>
        <mxCell id="Je2sraTjGHdL6ze52qPn-21" value="&lt;div&gt;Phone App&lt;/div&gt;" style="verticalLabelPosition=bottom;html=1;verticalAlign=top;align=center;strokeColor=none;fillColor=#00BEF2;shape=mxgraph.azure.mobile;pointerEvents=1;" vertex="1" parent="1">
          <mxGeometry x="180" y="130" width="50" height="90" as="geometry" />
        </mxCell>
        <mxCell id="Je2sraTjGHdL6ze52qPn-23" value="Website" style="verticalLabelPosition=bottom;html=1;verticalAlign=top;align=center;strokeColor=none;fillColor=#00BEF2;shape=mxgraph.azure.website_generic;pointerEvents=1;" vertex="1" parent="1">
          <mxGeometry x="170" y="260" width="90" height="70" as="geometry" />
        </mxCell>
        <mxCell id="Je2sraTjGHdL6ze52qPn-24" value="" style="endArrow=classic;html=1;" edge="1" parent="1" source="Je2sraTjGHdL6ze52qPn-11" target="Je2sraTjGHdL6ze52qPn-10">
          <mxGeometry width="50" height="50" relative="1" as="geometry">
            <mxPoint x="400" y="410" as="sourcePoint" />
            <mxPoint x="450" y="360" as="targetPoint" />
          </mxGeometry>
        </mxCell>
        <mxCell id="Je2sraTjGHdL6ze52qPn-36" value="&lt;div&gt;Send State Change&lt;/div&gt;&lt;div&gt;Instruction to Pi&lt;/div&gt;" style="edgeLabel;html=1;align=center;verticalAlign=middle;resizable=0;points=[];" vertex="1" connectable="0" parent="Je2sraTjGHdL6ze52qPn-24">
          <mxGeometry x="-0.1455" y="2" relative="1" as="geometry">
            <mxPoint x="-1" as="offset" />
          </mxGeometry>
        </mxCell>
        <mxCell id="Je2sraTjGHdL6ze52qPn-25" value="" style="endArrow=classic;html=1;exitX=0.422;exitY=0.429;exitDx=0;exitDy=0;exitPerimeter=0;" edge="1" parent="1" source="Je2sraTjGHdL6ze52qPn-23" target="Je2sraTjGHdL6ze52qPn-9">
          <mxGeometry width="50" height="50" relative="1" as="geometry">
            <mxPoint x="400" y="410" as="sourcePoint" />
            <mxPoint x="450" y="360" as="targetPoint" />
          </mxGeometry>
        </mxCell>
        <mxCell id="Je2sraTjGHdL6ze52qPn-27" value="&lt;div&gt;Monitor and&lt;/div&gt;&lt;div&gt;Set Pi State&lt;/div&gt;" style="edgeLabel;html=1;align=center;verticalAlign=middle;resizable=0;points=[];" vertex="1" connectable="0" parent="Je2sraTjGHdL6ze52qPn-25">
          <mxGeometry x="-0.1932" y="-2" relative="1" as="geometry">
            <mxPoint as="offset" />
          </mxGeometry>
        </mxCell>
        <mxCell id="Je2sraTjGHdL6ze52qPn-26" value="" style="endArrow=classic;html=1;" edge="1" parent="1" source="Je2sraTjGHdL6ze52qPn-21" target="Je2sraTjGHdL6ze52qPn-9">
          <mxGeometry width="50" height="50" relative="1" as="geometry">
            <mxPoint x="400" y="410" as="sourcePoint" />
            <mxPoint x="450" y="360" as="targetPoint" />
          </mxGeometry>
        </mxCell>
        <mxCell id="Je2sraTjGHdL6ze52qPn-28" value="Monitor and&lt;br&gt;&lt;div&gt;Set Pi State&lt;/div&gt;" style="edgeLabel;html=1;align=center;verticalAlign=middle;resizable=0;points=[];" vertex="1" connectable="0" parent="Je2sraTjGHdL6ze52qPn-26">
          <mxGeometry x="-0.2126" y="2" relative="1" as="geometry">
            <mxPoint as="offset" />
          </mxGeometry>
        </mxCell>
        <mxCell id="Je2sraTjGHdL6ze52qPn-32" value="" style="endArrow=classic;html=1;exitX=1;exitY=0.25;exitDx=0;exitDy=0;entryX=0;entryY=0.25;entryDx=0;entryDy=0;entryPerimeter=0;" edge="1" parent="1" source="Je2sraTjGHdL6ze52qPn-2" target="Je2sraTjGHdL6ze52qPn-10">
          <mxGeometry width="50" height="50" relative="1" as="geometry">
            <mxPoint x="400" y="410" as="sourcePoint" />
            <mxPoint x="450" y="360" as="targetPoint" />
          </mxGeometry>
        </mxCell>
        <mxCell id="Je2sraTjGHdL6ze52qPn-33" value="&lt;div&gt;Send Information&lt;/div&gt;&lt;div&gt;About State Changes&lt;br&gt;&lt;/div&gt;" style="edgeLabel;html=1;align=center;verticalAlign=middle;resizable=0;points=[];" vertex="1" connectable="0" parent="Je2sraTjGHdL6ze52qPn-32">
          <mxGeometry x="0.1636" y="-1" relative="1" as="geometry">
            <mxPoint x="-38" as="offset" />
          </mxGeometry>
        </mxCell>
        <mxCell id="Je2sraTjGHdL6ze52qPn-34" value="" style="endArrow=classic;html=1;exitX=0;exitY=0.75;exitDx=0;exitDy=0;exitPerimeter=0;entryX=1;entryY=0.75;entryDx=0;entryDy=0;" edge="1" parent="1" source="Je2sraTjGHdL6ze52qPn-10" target="Je2sraTjGHdL6ze52qPn-2">
          <mxGeometry width="50" height="50" relative="1" as="geometry">
            <mxPoint x="400" y="410" as="sourcePoint" />
            <mxPoint x="450" y="360" as="targetPoint" />
          </mxGeometry>
        </mxCell>
        <mxCell id="Je2sraTjGHdL6ze52qPn-35" value="&lt;div&gt;Set Schedules and&lt;/div&gt;&lt;div&gt;Instruct State Changes&lt;br&gt;&lt;/div&gt;" style="edgeLabel;html=1;align=center;verticalAlign=middle;resizable=0;points=[];" vertex="1" connectable="0" parent="Je2sraTjGHdL6ze52qPn-34">
          <mxGeometry x="0.2274" y="2" relative="1" as="geometry">
            <mxPoint as="offset" />
          </mxGeometry>
        </mxCell>
        <mxCell id="Je2sraTjGHdL6ze52qPn-37" value="&lt;div&gt;Store Current&lt;/div&gt;&lt;div&gt;State&lt;br&gt;&lt;/div&gt;" style="endArrow=classic;html=1;" edge="1" parent="1" source="Je2sraTjGHdL6ze52qPn-12" target="Je2sraTjGHdL6ze52qPn-13">
          <mxGeometry width="50" height="50" relative="1" as="geometry">
            <mxPoint x="400" y="410" as="sourcePoint" />
            <mxPoint x="450" y="360" as="targetPoint" />
          </mxGeometry>
        </mxCell>
        <mxCell id="Je2sraTjGHdL6ze52qPn-38" value="Cognito" style="outlineConnect=0;dashed=0;verticalLabelPosition=bottom;verticalAlign=top;align=center;html=1;shape=mxgraph.aws3.cognito;fillColor=#AD688B;gradientColor=none;strokeColor=#FFB366;strokeWidth=5;" vertex="1" parent="1">
          <mxGeometry x="440" y="320" width="48.5" height="51" as="geometry" />
        </mxCell>
        <mxCell id="Je2sraTjGHdL6ze52qPn-40" value="" style="endArrow=classic;html=1;exitX=0;exitY=1;exitDx=0;exitDy=0;exitPerimeter=0;" edge="1" parent="1" source="Je2sraTjGHdL6ze52qPn-9" target="Je2sraTjGHdL6ze52qPn-38">
          <mxGeometry width="50" height="50" relative="1" as="geometry">
            <mxPoint x="400" y="410" as="sourcePoint" />
            <mxPoint x="450" y="360" as="targetPoint" />
          </mxGeometry>
        </mxCell>
        <mxCell id="Je2sraTjGHdL6ze52qPn-41" value="Authentication" style="edgeLabel;html=1;align=center;verticalAlign=middle;resizable=0;points=[];" vertex="1" connectable="0" parent="Je2sraTjGHdL6ze52qPn-40">
          <mxGeometry x="0.324" y="2" relative="1" as="geometry">
            <mxPoint x="0.98" y="-9.02" as="offset" />
          </mxGeometry>
        </mxCell>
        <mxCell id="Je2sraTjGHdL6ze52qPn-42" value="Authentication" style="endArrow=classic;html=1;entryX=1;entryY=0.79;entryDx=0;entryDy=0;entryPerimeter=0;" edge="1" parent="1" source="Je2sraTjGHdL6ze52qPn-10" target="Je2sraTjGHdL6ze52qPn-38">
          <mxGeometry x="-0.3381" y="-2" width="50" height="50" relative="1" as="geometry">
            <mxPoint x="400" y="410" as="sourcePoint" />
            <mxPoint x="330" y="380" as="targetPoint" />
            <mxPoint as="offset" />
          </mxGeometry>
        </mxCell>
        <mxCell id="Je2sraTjGHdL6ze52qPn-44" value="Blinds Motor" style="aspect=fixed;html=1;points=[];align=center;image;fontSize=12;image=img/lib/azure2/general/Gear.svg;strokeColor=#FFB366;strokeWidth=5;fillColor=#ffffff;gradientColor=#ffffff;" vertex="1" parent="1">
          <mxGeometry x="180" y="527" width="47" height="47" as="geometry" />
        </mxCell>
        <mxCell id="Je2sraTjGHdL6ze52qPn-45" value="&lt;div&gt;Open and Close&lt;/div&gt;&lt;div&gt;Blinds&lt;/div&gt;" style="endArrow=classic;html=1;" edge="1" parent="1" source="Je2sraTjGHdL6ze52qPn-2" target="Je2sraTjGHdL6ze52qPn-44">
          <mxGeometry width="50" height="50" relative="1" as="geometry">
            <mxPoint x="400" y="470" as="sourcePoint" />
            <mxPoint x="450" y="420" as="targetPoint" />
          </mxGeometry>
        </mxCell>
      </root>
    </mxGraphModel>
  </diagram>
</mxfile>
